<svg width="24" height="24" viewBox="0 0 24 24" fill="none" xmlns="http://www.w3.org/2000/svg">
<path d="M22.8 7.2677H16.5C16.39 7.2677 16.3 7.35611 16.3 7.46417V17.4351C16.3 17.5432 16.39 17.6316 16.5 17.6316H17.98C18.09 17.6316 18.18 17.5432 18.18 17.4351V13.4296H22.385C22.495 13.4296 22.585 13.3411 22.585 13.2331V12.0813C22.585 11.9732 22.495 11.8848 22.385 11.8848H18.18V8.86895H22.8C22.91 8.86895 23 8.78053 23 8.67247V7.46417C23 7.35611 22.91 7.2677 22.8 7.2677ZM13.9 7.29225H12.5C12.39 7.29225 12.3 7.38067 12.3 7.48873V17.4597C12.3 17.5678 12.39 17.6562 12.5 17.6562H13.9C14.01 17.6562 14.1 17.5678 14.1 17.4597V7.48873C14.1 7.38067 14.01 7.29225 13.9 7.29225ZM10.5 12.2262H6.4625C6.3525 12.2262 6.2625 12.3146 6.2625 12.4226V13.4959C6.2625 13.6039 6.3525 13.6923 6.4625 13.6923H8.835L8.8275 13.9109C8.7975 15.355 7.6875 16.33 6.055 16.33C4.15 16.33 2.9575 14.8638 2.9575 12.4816C2.9575 10.1288 4.1275 8.67002 5.995 8.67002C7.365 8.67002 8.3225 9.33066 8.7075 10.5218H10.6125C10.2725 8.38022 8.4625 7 5.995 7C2.95 6.99755 1 9.1391 1 12.4963C1 15.8928 2.9275 18 6.025 18C8.8775 18 10.7 16.2637 10.7 13.5401V12.4226C10.7 12.3146 10.61 12.2262 10.5 12.2262Z" fill="#4B5563"/>
</svg>
