<svg width="32" height="32" viewBox="0 0 32 32" fill="none" xmlns="http://www.w3.org/2000/svg">
<path d="M31.0416 15.9681C31.0416 23.505 26.096 29.8284 19.4616 31.489C18.3156 31.8084 17.1697 31.9362 15.9031 31.9362C15.5413 31.9362 15.2397 31.9362 14.8778 31.8723C7.03716 31.4252 0.824951 24.4631 0.824951 15.9681C0.824951 7.1537 7.57998 0 15.9031 0C24.2263 0 31.0416 7.1537 31.0416 15.9681Z" fill="white"/>
<path fill-rule="evenodd" clip-rule="evenodd" d="M19.4619 13.0298C19.4619 14.0518 19.4015 16.3512 19.4015 16.3512C19.4015 16.3512 21.8141 16.3512 22.8997 16.3512H23.7441C23.5631 17.948 23.3822 19.4809 23.2013 21.0139H19.4619V31.5528C18.3159 31.8721 17.17 31.9999 15.9034 31.9999C15.5415 31.9999 15.2399 31.9999 14.8781 31.936V20.95H11.1387V16.2873H14.8781V15.968C14.8781 15.0099 14.8781 14.1157 14.8781 13.1576C14.8781 12.5827 14.9384 11.944 14.9987 11.3692C15.2399 9.96397 15.8431 8.75039 16.989 7.92006C17.954 7.15359 19.1 6.8981 20.2459 6.83423C21.03 6.83423 21.8141 6.83423 22.5378 6.8981C22.96 6.8981 23.3822 6.96197 23.8044 7.02585V11.1775H23.5028C22.7188 11.1775 21.995 11.1775 21.2712 11.1775C20.2459 11.2414 19.5222 11.6885 19.4619 13.0298Z" fill="white"/>
<path d="M29.7826 15.9708C29.7826 22.8797 25.2491 28.6761 19.1676 30.1984C18.1171 30.4912 17.0667 30.6083 15.9056 30.6083C15.5739 30.6083 15.2975 30.6083 14.9658 30.5497C7.77851 30.1399 2.08398 23.7579 2.08398 15.9708C2.08398 7.8909 8.27609 1.33331 15.9056 1.33331C23.5352 1.33331 29.7826 7.8909 29.7826 15.9708Z" fill="#1E4FAD"/>
<path fill-rule="evenodd" clip-rule="evenodd" d="M19.1677 13.2772C19.1677 14.214 19.1124 16.3218 19.1124 16.3218C19.1124 16.3218 21.3239 16.3218 22.3191 16.3218H23.0931C22.9272 17.7856 22.7614 19.1908 22.5955 20.596H19.1677V30.2567C18.1173 30.5495 17.0668 30.6666 15.9058 30.6666C15.574 30.6666 15.2976 30.6666 14.9659 30.608V20.5374H11.5381V16.2633H14.9659V15.9705C14.9659 15.0923 14.9659 14.2726 14.9659 13.3943C14.9659 12.8674 15.0212 12.2819 15.0765 11.7549C15.2976 10.4668 15.8505 9.3544 16.9009 8.59325C17.7855 7.89065 18.836 7.65645 19.8864 7.5979C20.6052 7.5979 21.3239 7.5979 21.9873 7.65645C22.3744 7.65645 22.7614 7.715 23.1484 7.77355V11.5793H22.8719C22.1532 11.5793 21.4898 11.5793 20.8263 11.5793C19.8864 11.6378 19.223 12.0477 19.1677 13.2772Z" fill="white"/>
</svg>
